<mxfile host="app.diagrams.net" modified="2022-12-28T20:45:12.137Z" agent="5.0 (Windows NT 10.0; Win64; x64) AppleWebKit/537.36 (KHTML, like Gecko) Chrome/107.0.0.0 Safari/537.36 OPR/93.0.0.0 (Edition Yx GX)" etag="4S5htrXhzu73mV-2cLv9" version="20.7.4" type="github">
  <diagram id="28-HT7lZWJC5YHbPiWiw" name="Страница 1">
    <mxGraphModel dx="1393" dy="789" grid="1" gridSize="10" guides="1" tooltips="1" connect="1" arrows="1" fold="1" page="1" pageScale="1" pageWidth="827" pageHeight="1169" math="0" shadow="0">
      <root>
        <mxCell id="0" />
        <mxCell id="1" parent="0" />
        <mxCell id="_tkoxDhHJudcEFZ44Igd-1" value="&lt;font style=&quot;font-size: 16px;&quot;&gt;User&lt;/font&gt;" style="rounded=1;whiteSpace=wrap;html=1;" parent="1" vertex="1">
          <mxGeometry x="340" y="210" width="120" height="30" as="geometry" />
        </mxCell>
        <mxCell id="_tkoxDhHJudcEFZ44Igd-2" value="" style="endArrow=none;html=1;rounded=0;fontSize=16;exitX=0;exitY=0.5;exitDx=0;exitDy=0;entryX=0.5;entryY=1;entryDx=0;entryDy=0;" parent="1" source="_tkoxDhHJudcEFZ44Igd-1" target="_tkoxDhHJudcEFZ44Igd-3" edge="1">
          <mxGeometry width="50" height="50" relative="1" as="geometry">
            <mxPoint x="390" y="230" as="sourcePoint" />
            <mxPoint x="130" y="80" as="targetPoint" />
            <Array as="points">
              <mxPoint x="120" y="225" />
            </Array>
          </mxGeometry>
        </mxCell>
        <mxCell id="_tkoxDhHJudcEFZ44Igd-3" value="Home&lt;br&gt;(useHome)" style="ellipse;whiteSpace=wrap;html=1;fontSize=16;" parent="1" vertex="1">
          <mxGeometry x="60" width="120" height="80" as="geometry" />
        </mxCell>
        <mxCell id="_tkoxDhHJudcEFZ44Igd-4" value="" style="endArrow=none;html=1;rounded=0;fontSize=16;exitX=0;exitY=0;exitDx=0;exitDy=0;entryX=0.5;entryY=1;entryDx=0;entryDy=0;" parent="1" source="_tkoxDhHJudcEFZ44Igd-1" target="_tkoxDhHJudcEFZ44Igd-5" edge="1">
          <mxGeometry width="50" height="50" relative="1" as="geometry">
            <mxPoint x="390" y="220" as="sourcePoint" />
            <mxPoint x="240" y="80" as="targetPoint" />
            <Array as="points">
              <mxPoint x="240" y="210" />
            </Array>
          </mxGeometry>
        </mxCell>
        <mxCell id="_tkoxDhHJudcEFZ44Igd-5" value="News&lt;br&gt;(useNews)" style="ellipse;whiteSpace=wrap;html=1;fontSize=16;" parent="1" vertex="1">
          <mxGeometry x="180" width="120" height="80" as="geometry" />
        </mxCell>
        <mxCell id="_tkoxDhHJudcEFZ44Igd-6" value="" style="endArrow=none;html=1;rounded=0;fontSize=16;entryX=0.5;entryY=1;entryDx=0;entryDy=0;" parent="1" source="_tkoxDhHJudcEFZ44Igd-1" target="_tkoxDhHJudcEFZ44Igd-7" edge="1">
          <mxGeometry width="50" height="50" relative="1" as="geometry">
            <mxPoint x="390" y="240" as="sourcePoint" />
            <mxPoint x="400" y="80" as="targetPoint" />
          </mxGeometry>
        </mxCell>
        <mxCell id="_tkoxDhHJudcEFZ44Igd-7" value="Forum&lt;br&gt;(useForum)" style="ellipse;whiteSpace=wrap;html=1;fontSize=16;" parent="1" vertex="1">
          <mxGeometry x="340" width="120" height="80" as="geometry" />
        </mxCell>
        <mxCell id="_tkoxDhHJudcEFZ44Igd-8" value="" style="endArrow=none;html=1;rounded=0;fontSize=16;exitX=1;exitY=0.5;exitDx=0;exitDy=0;entryX=0;entryY=0.5;entryDx=0;entryDy=0;" parent="1" source="_tkoxDhHJudcEFZ44Igd-1" target="_tkoxDhHJudcEFZ44Igd-9" edge="1">
          <mxGeometry width="50" height="50" relative="1" as="geometry">
            <mxPoint x="390" y="230" as="sourcePoint" />
            <mxPoint x="600" y="225" as="targetPoint" />
          </mxGeometry>
        </mxCell>
        <mxCell id="_tkoxDhHJudcEFZ44Igd-9" value="" style="rhombus;whiteSpace=wrap;html=1;fontSize=16;" parent="1" vertex="1">
          <mxGeometry x="500" y="185" width="80" height="80" as="geometry" />
        </mxCell>
        <mxCell id="_tkoxDhHJudcEFZ44Igd-10" value="" style="endArrow=none;html=1;rounded=0;fontSize=16;exitX=0.5;exitY=0;exitDx=0;exitDy=0;entryX=0.5;entryY=1;entryDx=0;entryDy=0;" parent="1" source="_tkoxDhHJudcEFZ44Igd-9" target="_tkoxDhHJudcEFZ44Igd-12" edge="1">
          <mxGeometry width="50" height="50" relative="1" as="geometry">
            <mxPoint x="390" y="230" as="sourcePoint" />
            <mxPoint x="600" y="80" as="targetPoint" />
          </mxGeometry>
        </mxCell>
        <mxCell id="_tkoxDhHJudcEFZ44Igd-11" value="News" style="edgeLabel;html=1;align=center;verticalAlign=middle;resizable=0;points=[];fontSize=16;" parent="_tkoxDhHJudcEFZ44Igd-10" vertex="1" connectable="0">
          <mxGeometry x="-0.2952" y="-2" relative="1" as="geometry">
            <mxPoint x="18" y="2" as="offset" />
          </mxGeometry>
        </mxCell>
        <mxCell id="_tkoxDhHJudcEFZ44Igd-12" value="Search from news" style="ellipse;whiteSpace=wrap;html=1;fontSize=16;" parent="1" vertex="1">
          <mxGeometry x="480" width="120" height="80" as="geometry" />
        </mxCell>
        <mxCell id="_tkoxDhHJudcEFZ44Igd-14" value="" style="endArrow=none;html=1;rounded=0;fontSize=16;exitX=1;exitY=0.5;exitDx=0;exitDy=0;entryX=0.5;entryY=1;entryDx=0;entryDy=0;" parent="1" source="_tkoxDhHJudcEFZ44Igd-9" target="_tkoxDhHJudcEFZ44Igd-16" edge="1">
          <mxGeometry width="50" height="50" relative="1" as="geometry">
            <mxPoint x="390" y="230" as="sourcePoint" />
            <mxPoint x="680" y="80" as="targetPoint" />
            <Array as="points">
              <mxPoint x="680" y="225" />
            </Array>
          </mxGeometry>
        </mxCell>
        <mxCell id="_tkoxDhHJudcEFZ44Igd-15" value="Forum" style="edgeLabel;html=1;align=center;verticalAlign=middle;resizable=0;points=[];fontSize=16;" parent="_tkoxDhHJudcEFZ44Igd-14" vertex="1" connectable="0">
          <mxGeometry x="-0.8286" y="-2" relative="1" as="geometry">
            <mxPoint x="9" y="-7" as="offset" />
          </mxGeometry>
        </mxCell>
        <mxCell id="_tkoxDhHJudcEFZ44Igd-16" value="Search from forum" style="ellipse;whiteSpace=wrap;html=1;fontSize=16;" parent="1" vertex="1">
          <mxGeometry x="620" width="120" height="80" as="geometry" />
        </mxCell>
        <mxCell id="_tkoxDhHJudcEFZ44Igd-17" value="" style="endArrow=none;html=1;rounded=0;fontSize=16;exitX=0.5;exitY=1;exitDx=0;exitDy=0;entryX=0.5;entryY=0;entryDx=0;entryDy=0;" parent="1" source="_tkoxDhHJudcEFZ44Igd-1" target="_tkoxDhHJudcEFZ44Igd-18" edge="1">
          <mxGeometry width="50" height="50" relative="1" as="geometry">
            <mxPoint x="390" y="220" as="sourcePoint" />
            <mxPoint x="400" y="280" as="targetPoint" />
          </mxGeometry>
        </mxCell>
        <mxCell id="_tkoxDhHJudcEFZ44Igd-18" value="Авторизован" style="rhombus;whiteSpace=wrap;html=1;fontSize=16;" parent="1" vertex="1">
          <mxGeometry x="340" y="280" width="120" height="80" as="geometry" />
        </mxCell>
        <mxCell id="_tkoxDhHJudcEFZ44Igd-20" value="" style="endArrow=none;html=1;rounded=0;fontSize=16;exitX=0;exitY=0.5;exitDx=0;exitDy=0;" parent="1" source="_tkoxDhHJudcEFZ44Igd-18" edge="1">
          <mxGeometry width="50" height="50" relative="1" as="geometry">
            <mxPoint x="390" y="220" as="sourcePoint" />
            <mxPoint x="200" y="360" as="targetPoint" />
            <Array as="points">
              <mxPoint x="200" y="320" />
            </Array>
          </mxGeometry>
        </mxCell>
        <mxCell id="_tkoxDhHJudcEFZ44Igd-21" value="Нет" style="edgeLabel;html=1;align=center;verticalAlign=middle;resizable=0;points=[];fontSize=16;" parent="_tkoxDhHJudcEFZ44Igd-20" vertex="1" connectable="0">
          <mxGeometry x="-0.7" y="-1" relative="1" as="geometry">
            <mxPoint as="offset" />
          </mxGeometry>
        </mxCell>
        <mxCell id="_tkoxDhHJudcEFZ44Igd-22" value="" style="endArrow=none;html=1;rounded=0;fontSize=16;exitX=0.5;exitY=0;exitDx=0;exitDy=0;entryX=0.5;entryY=0;entryDx=0;entryDy=0;" parent="1" source="_tkoxDhHJudcEFZ44Igd-23" target="_tkoxDhHJudcEFZ44Igd-24" edge="1">
          <mxGeometry width="50" height="50" relative="1" as="geometry">
            <mxPoint x="140" y="400" as="sourcePoint" />
            <mxPoint x="260" y="400" as="targetPoint" />
            <Array as="points">
              <mxPoint x="140" y="360" />
              <mxPoint x="210" y="360" />
              <mxPoint x="260" y="360" />
            </Array>
          </mxGeometry>
        </mxCell>
        <mxCell id="_tkoxDhHJudcEFZ44Igd-23" value="Sign in&lt;br&gt;(useSignIn)" style="ellipse;whiteSpace=wrap;html=1;fontSize=16;" parent="1" vertex="1">
          <mxGeometry x="80" y="400" width="120" height="80" as="geometry" />
        </mxCell>
        <mxCell id="_tkoxDhHJudcEFZ44Igd-24" value="Sign up&lt;br&gt;(useSignUp)" style="ellipse;whiteSpace=wrap;html=1;fontSize=16;" parent="1" vertex="1">
          <mxGeometry x="200" y="400" width="120" height="80" as="geometry" />
        </mxCell>
        <mxCell id="_tkoxDhHJudcEFZ44Igd-25" value="" style="endArrow=none;html=1;rounded=0;fontSize=16;exitX=1;exitY=0.5;exitDx=0;exitDy=0;entryX=0.5;entryY=0;entryDx=0;entryDy=0;" parent="1" source="_tkoxDhHJudcEFZ44Igd-18" target="_tkoxDhHJudcEFZ44Igd-27" edge="1">
          <mxGeometry width="50" height="50" relative="1" as="geometry">
            <mxPoint x="390" y="200" as="sourcePoint" />
            <mxPoint x="600" y="360" as="targetPoint" />
            <Array as="points">
              <mxPoint x="600" y="320" />
            </Array>
          </mxGeometry>
        </mxCell>
        <mxCell id="_tkoxDhHJudcEFZ44Igd-26" value="Да" style="edgeLabel;html=1;align=center;verticalAlign=middle;resizable=0;points=[];fontSize=16;" parent="_tkoxDhHJudcEFZ44Igd-25" vertex="1" connectable="0">
          <mxGeometry x="-0.6444" y="-3" relative="1" as="geometry">
            <mxPoint y="-3" as="offset" />
          </mxGeometry>
        </mxCell>
        <mxCell id="_tkoxDhHJudcEFZ44Igd-27" value="Profile&lt;br&gt;(useProfile)" style="ellipse;whiteSpace=wrap;html=1;fontSize=16;" parent="1" vertex="1">
          <mxGeometry x="540" y="360" width="120" height="80" as="geometry" />
        </mxCell>
      </root>
    </mxGraphModel>
  </diagram>
</mxfile>
